<mxfile host="65bd71144e" modified="2021-11-08T01:09:42.029Z" agent="5.0 (Windows NT 10.0; Win64; x64) AppleWebKit/537.36 (KHTML, like Gecko) Code/1.62.0 Chrome/91.0.4472.164 Electron/13.5.1 Safari/537.36" etag="0vGk_QsFtjBHIWAuBqVb" version="15.6.8" type="embed">
    <diagram id="ShzuKKsqV3lJHPmzrgDM" name="ページ1">
        <mxGraphModel dx="747" dy="437" grid="0" gridSize="10" guides="1" tooltips="1" connect="1" arrows="1" fold="1" page="0" pageScale="1" pageWidth="827" pageHeight="1169" math="0" shadow="0">
            <root>
                <mxCell id="0"/>
                <mxCell id="1" style="" parent="0"/>
                <mxCell id="2" value="" style="rounded=0;whiteSpace=wrap;html=1;fillColor=default;strokeColor=default;fontColor=default;" parent="1" vertex="1">
                    <mxGeometry x="40" y="40" width="600" height="360" as="geometry"/>
                </mxCell>
                <mxCell id="3" value="GPUベンチマーク新規登録" style="text;html=1;strokeColor=none;fillColor=none;align=center;verticalAlign=middle;whiteSpace=wrap;rounded=0;fontColor=default;fontStyle=1;fontSize=20;" parent="1" vertex="1">
                    <mxGeometry x="213.75" y="50" width="252.5" height="50" as="geometry"/>
                </mxCell>
                <mxCell id="4" value="&lt;span style=&quot;font-size: 19px&quot;&gt;登録&lt;/span&gt;" style="rounded=1;whiteSpace=wrap;html=1;align=center;labelBackgroundColor=none;fillColor=#d5e8d4;strokeColor=#82b366;" parent="1" vertex="1">
                    <mxGeometry x="275" y="350" width="130" height="34" as="geometry"/>
                </mxCell>
                <mxCell id="5" value="GPU名称" style="text;html=1;strokeColor=none;fillColor=none;align=center;verticalAlign=middle;whiteSpace=wrap;rounded=0;" parent="1" vertex="1">
                    <mxGeometry x="130" y="120" width="60" height="30" as="geometry"/>
                </mxCell>
                <mxCell id="6" value="" style="rounded=1;arcSize=9;fillColor=#F7F8F9;align=left;spacingLeft=5;strokeColor=#DEE1E6;html=1;strokeWidth=2;fontSize=12" parent="1" vertex="1">
                    <mxGeometry x="230" y="120" width="290" height="33" as="geometry"/>
                </mxCell>
                <mxCell id="10" value="3DMark Time Spy Graphics" style="text;html=1;strokeColor=none;fillColor=none;align=center;verticalAlign=middle;whiteSpace=wrap;rounded=0;" parent="1" vertex="1">
                    <mxGeometry x="105" y="161.5" width="110" height="30" as="geometry"/>
                </mxCell>
                <mxCell id="11" value="" style="rounded=1;arcSize=9;fillColor=#F7F8F9;align=left;spacingLeft=5;strokeColor=#DEE1E6;html=1;strokeWidth=2;fontSize=12" parent="1" vertex="1">
                    <mxGeometry x="230" y="160" width="290" height="33" as="geometry"/>
                </mxCell>
                <mxCell id="12" value="ワットパフォーマンス" style="text;html=1;strokeColor=none;fillColor=none;align=center;verticalAlign=middle;whiteSpace=wrap;rounded=0;" parent="1" vertex="1">
                    <mxGeometry x="95" y="283" width="130" height="30" as="geometry"/>
                </mxCell>
                <mxCell id="13" value="" style="rounded=1;arcSize=9;fillColor=#F7F8F9;align=left;spacingLeft=5;strokeColor=#DEE1E6;html=1;strokeWidth=2;fontSize=12" parent="1" vertex="1">
                    <mxGeometry x="230" y="280" width="290" height="33" as="geometry"/>
                </mxCell>
                <mxCell id="14" value="コスパ" style="text;html=1;strokeColor=none;fillColor=none;align=center;verticalAlign=middle;whiteSpace=wrap;rounded=0;" parent="1" vertex="1">
                    <mxGeometry x="130" y="243" width="60" height="30" as="geometry"/>
                </mxCell>
                <mxCell id="15" value="" style="rounded=1;arcSize=9;fillColor=#F7F8F9;align=left;spacingLeft=5;strokeColor=#DEE1E6;html=1;strokeWidth=2;fontSize=12" parent="1" vertex="1">
                    <mxGeometry x="230" y="240" width="290" height="33" as="geometry"/>
                </mxCell>
                <mxCell id="16" value="TDP" style="text;html=1;strokeColor=none;fillColor=none;align=center;verticalAlign=middle;whiteSpace=wrap;rounded=0;" parent="1" vertex="1">
                    <mxGeometry x="130" y="203.5" width="60" height="30" as="geometry"/>
                </mxCell>
                <mxCell id="17" value="" style="rounded=1;arcSize=9;fillColor=#F7F8F9;align=left;spacingLeft=5;strokeColor=#DEE1E6;html=1;strokeWidth=2;fontSize=12" parent="1" vertex="1">
                    <mxGeometry x="230" y="200.5" width="290" height="33" as="geometry"/>
                </mxCell>
                <mxCell id="18" value="名称未設定レイヤ" parent="0"/>
            </root>
        </mxGraphModel>
    </diagram>
</mxfile>